<?xml version="1.0" standalone="no"?>
<!DOCTYPE svg PUBLIC "-//W3C//DTD SVG 20010904//EN"
 "http://www.w3.org/TR/2001/REC-SVG-20010904/DTD/svg10.dtd">
<svg version="1.0" xmlns="http://www.w3.org/2000/svg"
 width="512.000000pt" height="512.000000pt" viewBox="0 0 512.000000 512.000000"
 preserveAspectRatio="xMidYMid meet">
<metadata>
Created by potrace 1.14, written by Peter Selinger 2001-2017
</metadata>
<g transform="translate(0.000000,512.000000) scale(0.100000,-0.100000)"
fill="#000000" stroke="none">
<path d="M942 4548 c-126 -14 -230 -85 -284 -196 l-33 -67 0 -470 c0 -258 3
-487 7 -509 7 -43 66 -169 97 -206 11 -14 24 -29 28 -35 5 -5 44 -53 87 -105
43 -52 95 -115 116 -140 20 -25 61 -74 91 -110 30 -36 85 -103 123 -150 39
-47 72 -87 76 -90 3 -3 57 -68 120 -145 62 -77 122 -149 131 -160 10 -11 64
-76 121 -145 56 -69 112 -136 124 -149 22 -23 22 -26 20 -404 -1 -371 -1 -380
-21 -384 -11 -2 -27 -4 -35 -4 -8 0 -104 0 -212 1 l-198 1 0 399 0 399 -72 -1
-73 -1 -2 34 c-1 19 -2 48 -2 65 l-1 32 -265 -1 -266 0 3 -576 3 -576 26 -56
c30 -63 85 -128 132 -158 18 -11 58 -45 90 -76 62 -61 118 -89 194 -101 62 -9
1001 -11 1073 -2 31 4 76 16 101 27 54 24 129 88 149 127 8 16 18 31 21 34 3
3 13 28 22 55 14 44 16 114 16 555 0 532 -2 550 -47 654 -18 41 -81 133 -114
167 -7 8 -43 50 -78 94 -36 44 -67 82 -70 85 -3 3 -25 30 -50 60 -25 30 -47
57 -50 60 -3 3 -25 30 -50 60 -25 30 -47 57 -50 60 -3 3 -23 28 -45 55 -22 28
-45 55 -51 60 -6 6 -28 33 -50 60 -21 28 -42 52 -45 55 -3 3 -36 43 -74 90
-38 47 -72 87 -75 90 -3 3 -25 30 -50 60 -25 30 -47 57 -50 60 -3 3 -25 30
-50 60 -25 30 -47 57 -50 60 -3 3 -27 31 -53 63 l-47 59 0 329 0 329 235 0
234 0 -1 -357 -1 -358 75 -3 76 -3 -2 -59 c-2 -47 1 -61 13 -64 9 -3 130 -5
269 -4 l253 1 -3 536 -3 536 -32 65 c-30 61 -108 150 -132 150 -6 0 -36 26
-66 59 -66 68 -134 106 -211 118 -52 7 -994 9 -1062 1z"/>
<path d="M3089 4548 c-89 -8 -149 -33 -213 -89 -57 -50 -106 -148 -112 -221
-4 -41 -7 -793 -4 -990 l0 -38 74 0 73 0 0 -62 -1 -63 267 -1 267 -2 1 57 c0
31 0 90 -1 131 -1 41 -1 82 -1 90 1 47 0 252 -2 293 -1 26 0 47 3 47 3 0 5 51
5 112 l0 113 236 3 236 3 0 -346 c0 -190 -3 -345 -6 -345 -6 0 -120 -83 -181
-131 -48 -39 -442 -329 -456 -337 -11 -6 -15 -31 -16 -96 -2 -96 -7 -87 72
-146 18 -14 51 -43 74 -66 37 -36 172 -143 215 -169 9 -5 18 -13 21 -16 5 -5
101 -77 166 -124 15 -11 33 -26 40 -32 7 -7 15 -13 19 -13 3 0 18 -11 32 -24
l26 -24 0 -489 1 -488 -245 0 -244 0 0 395 0 395 -68 2 c-38 1 -71 3 -73 6 -2
2 -4 31 -5 64 l-2 60 -263 0 c-189 1 -264 -2 -267 -11 -6 -19 0 -1099 7 -1134
17 -82 108 -208 163 -226 11 -3 38 -28 61 -54 48 -57 137 -107 207 -118 57 -8
1060 -9 1118 0 89 13 190 81 238 161 54 89 53 73 54 735 1 338 -3 639 -7 668
-13 81 -52 157 -114 222 -31 33 -62 60 -67 60 -6 0 -30 21 -55 47 -25 25 -94
81 -154 124 -103 74 -108 78 -87 90 13 6 28 16 33 21 13 10 72 53 214 153 101
72 162 136 192 202 23 52 43 140 36 158 -3 8 -2 15 2 15 12 0 4 979 -8 1030
-22 90 -86 179 -160 221 -19 12 -48 38 -65 59 -36 46 -112 93 -178 110 -53 14
-959 21 -1098 8z"/>
</g>
</svg>
